<svg width="500" height="500" viewBox="0 0 500 500" fill="none" xmlns="http://www.w3.org/2000/svg">
  <rect width="500" height="500" fill="#1E1E24"/>
  <circle cx="250" cy="250" r="150" fill="#333340"/>
  <circle cx="250" cy="250" r="50" fill="#4F4F60"/>
  <circle cx="250" cy="250" r="10" fill="#FFFFFF"/>
  <rect x="50" y="400" width="400" height="60" fill="#333340"/>
  <rect x="70" y="420" width="360" height="20" fill="#4F4F60"/>
  <rect x="50" y="40" width="400" height="60" fill="#333340"/>
  <rect x="70" y="60" width="360" height="20" fill="#4F4F60"/>
  <rect x="380" y="120" width="50" height="260" fill="#272730"/>
  <rect x="70" y="120" width="50" height="260" fill="#272730"/>
  
  <!-- Sound Wave Patterns -->
  <rect x="140" y="130" width="4" height="40" fill="#4A90E2" opacity="0.8"/>
  <rect x="148" y="120" width="4" height="60" fill="#4A90E2" opacity="0.8"/>
  <rect x="156" y="140" width="4" height="20" fill="#4A90E2" opacity="0.8"/>
  <rect x="164" y="130" width="4" height="40" fill="#4A90E2" opacity="0.8"/>
  <rect x="172" y="110" width="4" height="80" fill="#4A90E2" opacity="0.8"/>
  <rect x="180" y="125" width="4" height="50" fill="#4A90E2" opacity="0.8"/>
  <rect x="188" y="135" width="4" height="30" fill="#4A90E2" opacity="0.8"/>
  <rect x="196" y="120" width="4" height="60" fill="#4A90E2" opacity="0.8"/>
  <rect x="204" y="130" width="4" height="40" fill="#4A90E2" opacity="0.8"/>
  
  <rect x="140" y="330" width="4" height="40" fill="#4A90E2" opacity="0.8"/>
  <rect x="148" y="320" width="4" height="60" fill="#4A90E2" opacity="0.8"/>
  <rect x="156" y="340" width="4" height="20" fill="#4A90E2" opacity="0.8"/>
  <rect x="164" y="330" width="4" height="40" fill="#4A90E2" opacity="0.8"/>
  <rect x="172" y="310" width="4" height="80" fill="#4A90E2" opacity="0.8"/>
  <rect x="180" y="325" width="4" height="50" fill="#4A90E2" opacity="0.8"/>
  <rect x="188" y="335" width="4" height="30" fill="#4A90E2" opacity="0.8"/>
  <rect x="196" y="320" width="4" height="60" fill="#4A90E2" opacity="0.8"/>
  <rect x="204" y="330" width="4" height="40" fill="#4A90E2" opacity="0.8"/>
  
  <!-- Album Text -->
  <text x="250" y="350" font-family="Arial" font-size="16" fill="white" text-anchor="middle">SIGNATURE SOUNDPACK</text>
  <text x="250" y="375" font-family="Arial" font-size="14" fill="#CCCCCC" text-anchor="middle">PREMIUM COLLECTION</text>
</svg>